<svg width="26" height="26" viewBox="0 0 26 26" fill="none" xmlns="http://www.w3.org/2000/svg">
<path fill-rule="evenodd" clip-rule="evenodd" d="M2.62582 6.39187L2.75938 6.24162C3.24889 5.72974 3.97814 5.47363 4.94646 5.47363H21.5416C22.4541 5.47363 23.1553 5.69635 23.6452 6.14144L23.6619 6.15814C23.7621 6.24729 23.8626 6.35281 23.9624 6.47535C23.9624 6.4867 23.9681 6.49772 23.9791 6.50874L23.9958 6.52544C24.3634 6.98189 24.5467 7.62733 24.5467 8.46209V17.9116C24.5357 19.9151 23.534 20.9168 21.5416 20.9168H4.94646C2.95405 20.9058 1.95801 19.904 1.95801 17.9116V8.46209C1.95801 7.56054 2.18072 6.87036 2.62582 6.39187ZM22.0925 7.10977C21.9256 7.06536 21.7419 7.04833 21.5419 7.05969H4.94646C4.82392 7.04867 4.70705 7.05401 4.59586 7.07638L13.1939 15.7913L22.0925 7.10977ZM3.54406 8.27844C3.53304 8.3342 3.53304 8.39531 3.54406 8.46209V17.9116C3.54406 18.8579 4.01153 19.3307 4.94646 19.3307H21.5416C22.4875 19.3307 22.9607 18.8579 22.9607 17.9116V8.47879L13.7449 17.4775C13.5779 17.6335 13.3889 17.7113 13.1776 17.7113C12.9549 17.7003 12.7655 17.6221 12.6099 17.4775L3.54406 8.27844Z" fill="url(#paint0_linear_43_250)"/>
<path fill-rule="evenodd" clip-rule="evenodd" d="M2.62598 6.39147C2.64835 6.35808 2.67606 6.32469 2.70945 6.2913C2.7208 6.26892 2.73717 6.25223 2.75954 6.24121L2.62598 6.39147Z" fill="url(#paint1_linear_43_250)"/>
<defs>
<linearGradient id="paint0_linear_43_250" x1="13.2524" y1="5.47363" x2="13.2524" y2="20.9168" gradientUnits="userSpaceOnUse">
<stop stop-color="#FF5722"/>
<stop offset="1" stop-color="#FF5722"/>
</linearGradient>
<linearGradient id="paint1_linear_43_250" x1="2.69276" y1="6.24121" x2="2.69276" y2="6.39147" gradientUnits="userSpaceOnUse">
<stop stop-color="#FF5722"/>
<stop offset="1" stop-color="#FF5722"/>
</linearGradient>
</defs>
</svg>
