<svg width="232" height="20" viewBox="0 0 232 20" fill="none" xmlns="http://www.w3.org/2000/svg">
<g clip-path="url(#clip0_30_1066)">
<path d="M80 0C74.4772 0 70 4.4772 70 10C70 14.6896 73.2288 18.6248 77.5844 19.7056V13.056H75.5224V10H77.5844V8.6832C77.5844 5.2796 79.1248 3.702 82.4664 3.702C83.1 3.702 84.1932 3.8264 84.6404 3.9504V6.7204C84.4044 6.6956 83.9944 6.6832 83.4852 6.6832C81.8456 6.6832 81.212 7.3044 81.212 8.9192V10H84.4784L83.9172 13.056H81.212V19.9268C86.1636 19.3288 90.0004 15.1128 90.0004 10C90 4.4772 85.5228 0 80 0Z" fill="white"/>
</g>
<g clip-path="url(#clip1_30_1066)">
<path d="M10 1.80078C12.6719 1.80078 12.9883 1.8125 14.0391 1.85937C15.0156 1.90234 15.543 2.06641 15.8945 2.20313C16.3594 2.38281 16.6953 2.60156 17.043 2.94922C17.3945 3.30078 17.6094 3.63281 17.7891 4.09766C17.9258 4.44922 18.0898 4.98047 18.1328 5.95312C18.1797 7.00781 18.1914 7.32422 18.1914 9.99219C18.1914 12.6641 18.1797 12.9805 18.1328 14.0313C18.0898 15.0078 17.9258 15.5352 17.7891 15.8867C17.6094 16.3516 17.3906 16.6875 17.043 17.0352C16.6914 17.3867 16.3594 17.6016 15.8945 17.7813C15.543 17.918 15.0117 18.082 14.0391 18.125C12.9844 18.1719 12.668 18.1836 10 18.1836C7.32813 18.1836 7.01172 18.1719 5.96094 18.125C4.98438 18.082 4.45703 17.918 4.10547 17.7813C3.64063 17.6016 3.30469 17.3828 2.95703 17.0352C2.60547 16.6836 2.39063 16.3516 2.21094 15.8867C2.07422 15.5352 1.91016 15.0039 1.86719 14.0313C1.82031 12.9766 1.80859 12.6602 1.80859 9.99219C1.80859 7.32031 1.82031 7.00391 1.86719 5.95312C1.91016 4.97656 2.07422 4.44922 2.21094 4.09766C2.39063 3.63281 2.60938 3.29688 2.95703 2.94922C3.30859 2.59766 3.64063 2.38281 4.10547 2.20313C4.45703 2.06641 4.98828 1.90234 5.96094 1.85937C7.01172 1.8125 7.32813 1.80078 10 1.80078ZM10 0C7.28516 0 6.94531 0.0117187 5.87891 0.0585938C4.81641 0.105469 4.08594 0.277344 3.45313 0.523438C2.79297 0.78125 2.23438 1.12109 1.67969 1.67969C1.12109 2.23438 0.78125 2.79297 0.523438 3.44922C0.277344 4.08594 0.105469 4.8125 0.0585938 5.875C0.0117188 6.94531 0 7.28516 0 10C0 12.7148 0.0117188 13.0547 0.0585938 14.1211C0.105469 15.1836 0.277344 15.9141 0.523438 16.5469C0.78125 17.207 1.12109 17.7656 1.67969 18.3203C2.23438 18.875 2.79297 19.2188 3.44922 19.4727C4.08594 19.7188 4.8125 19.8906 5.875 19.9375C6.94141 19.9844 7.28125 19.9961 9.99609 19.9961C12.7109 19.9961 13.0508 19.9844 14.1172 19.9375C15.1797 19.8906 15.9102 19.7188 16.543 19.4727C17.1992 19.2188 17.7578 18.875 18.3125 18.3203C18.8672 17.7656 19.2109 17.207 19.4648 16.5508C19.7109 15.9141 19.8828 15.1875 19.9297 14.125C19.9766 13.0586 19.9883 12.7188 19.9883 10.0039C19.9883 7.28906 19.9766 6.94922 19.9297 5.88281C19.8828 4.82031 19.7109 4.08984 19.4648 3.45703C19.2188 2.79297 18.8789 2.23438 18.3203 1.67969C17.7656 1.125 17.207 0.78125 16.5508 0.527344C15.9141 0.28125 15.1875 0.109375 14.125 0.0625C13.0547 0.0117188 12.7148 0 10 0Z" fill="white"/>
<path d="M10 4.86328C7.16406 4.86328 4.86328 7.16406 4.86328 10C4.86328 12.8359 7.16406 15.1367 10 15.1367C12.8359 15.1367 15.1367 12.8359 15.1367 10C15.1367 7.16406 12.8359 4.86328 10 4.86328ZM10 13.332C8.16016 13.332 6.66797 11.8398 6.66797 10C6.66797 8.16016 8.16016 6.66797 10 6.66797C11.8398 6.66797 13.332 8.16016 13.332 10C13.332 11.8398 11.8398 13.332 10 13.332Z" fill="white"/>
<path d="M16.5391 4.66016C16.5391 5.32422 16 5.85938 15.3398 5.85938C14.6758 5.85938 14.1406 5.32031 14.1406 4.66016C14.1406 3.99609 14.6797 3.46094 15.3398 3.46094C16 3.46094 16.5391 4 16.5391 4.66016Z" fill="white"/>
</g>
<path d="M141 20L142.406 14.8641C141.538 13.3608 141.082 11.6566 141.083 9.90915C141.086 4.44582 145.532 0 150.994 0C153.645 0.000833332 156.133 1.03333 158.005 2.90666C159.876 4.77999 160.906 7.26998 160.905 9.91831C160.902 15.3825 156.457 19.8283 150.994 19.8283C149.336 19.8275 147.702 19.4116 146.254 18.6216L141 20ZM146.497 16.8275C147.894 17.6566 149.227 18.1533 150.991 18.1541C155.531 18.1541 159.229 14.4591 159.232 9.91665C159.233 5.36499 155.552 1.675 150.997 1.67333C146.454 1.67333 142.758 5.36832 142.757 9.90998C142.756 11.7641 143.299 13.1525 144.212 14.605L143.379 17.645L146.497 16.8275ZM155.987 12.2741C155.925 12.1708 155.76 12.1091 155.512 11.985C155.264 11.8608 154.047 11.2616 153.819 11.1791C153.592 11.0966 153.427 11.055 153.262 11.3033C153.097 11.5508 152.622 12.1091 152.477 12.2741C152.333 12.4391 152.188 12.46 151.941 12.3358C151.693 12.2116 150.895 11.9508 149.949 11.1066C149.213 10.45 148.716 9.63915 148.572 9.39081C148.427 9.14331 148.557 9.00915 148.68 8.88581C148.792 8.77498 148.927 8.59665 149.052 8.45165C149.177 8.30832 149.218 8.20498 149.302 8.03915C149.384 7.87415 149.343 7.72915 149.281 7.60498C149.218 7.48165 148.723 6.26249 148.517 5.76665C148.316 5.28416 148.112 5.34915 147.96 5.34165L147.485 5.33332C147.32 5.33332 147.052 5.39499 146.825 5.64332C146.598 5.89165 145.958 6.48999 145.958 7.70915C145.958 8.92831 146.846 10.1058 146.969 10.2708C147.093 10.4358 148.715 12.9375 151.199 14.01C151.79 14.265 152.252 14.4175 152.611 14.5316C153.204 14.72 153.744 14.6933 154.171 14.63C154.647 14.5591 155.636 14.0308 155.842 13.4525C156.049 12.8733 156.049 12.3775 155.987 12.2741Z" fill="white"/>
<g clip-path="url(#clip2_30_1066)">
<path d="M222 8.18188V12.0546H227.382C227.145 13.3001 226.436 14.3547 225.373 15.0637L228.618 17.5819C230.509 15.8365 231.6 13.2729 231.6 10.2274C231.6 9.51836 231.536 8.83648 231.418 8.18199L222 8.18188Z" fill="white"/>
<path d="M216.396 11.9033L215.664 12.4636L213.073 14.4818C214.718 17.7454 218.091 20 222 20C224.7 20 226.963 19.1091 228.618 17.5818L225.372 15.0636C224.482 15.6636 223.345 16.0273 222 16.0273C219.4 16.0273 217.191 14.2728 216.4 11.9091L216.396 11.9033Z" fill="white"/>
<path d="M213.073 5.51807C212.391 6.86347 212 8.38167 212 9.99982C212 11.618 212.391 13.1362 213.073 14.4816C213.073 14.4906 216.4 11.8998 216.4 11.8998C216.2 11.2998 216.082 10.6634 216.082 9.99972C216.082 9.336 216.2 8.69967 216.4 8.09968L213.073 5.51807Z" fill="white"/>
<path d="M222 3.98182C223.473 3.98182 224.782 4.49089 225.827 5.47272L228.691 2.60912C226.954 0.990971 224.7 0 222 0C218.091 0 214.718 2.24545 213.073 5.51819L216.4 8.10001C217.191 5.73635 219.4 3.98182 222 3.98182Z" fill="white"/>
</g>
<defs>
<clipPath id="clip0_30_1066">
<rect width="20" height="20" fill="white" transform="translate(70)"/>
</clipPath>
<clipPath id="clip1_30_1066">
<rect width="20" height="20" fill="white"/>
</clipPath>
<clipPath id="clip2_30_1066">
<rect width="20" height="20" fill="white" transform="translate(212)"/>
</clipPath>
</defs>
</svg>
